<svg xmlns="http://www.w3.org/2000/svg" xmlns:osb="http://www.openswatchbook.org/uri/2009/osb" xmlns:svg="http://www.w3.org/2000/svg" id="svg2" width="744.094" height="1052.362" version="1.1"><defs id="defs3034"><marker id="DotL" orient="auto" refX="0" refY="0" style="overflow:visible"><path id="path4407" d="M -2.5,-1.0 C -2.5,1.7600000 -4.7400000,4.0 -7.5,4.0 C -10.260000,4.0 -12.5,1.7600000 -12.5,-1.0 C -12.5,-3.7600000 -10.260000,-6.0 -7.5,-6.0 C -4.7400000,-6.0 -2.5,-3.7600000 -2.5,-1.0 z" transform="scale(0.8) translate(7.4, 1)" style="fill-rule:evenodd;stroke:#000;stroke-width:1pt;marker-start:none;marker-end:none"/></marker><linearGradient id="linearGradient3843" osb:paint="solid"><stop style="stop-color:#000;stop-opacity:1" id="stop3845" offset="0"/></linearGradient><marker id="Arrow1Mstart" orient="auto" refX="0" refY="0" style="overflow:visible"><path id="path3227" d="M 0,0 5,-5 -12.5,0 5,5 0,0 z" transform="matrix(0.4,0,0,0.4,4,0)" style="fill-rule:evenodd;stroke:#000;stroke-width:1pt;marker-start:none"/></marker><marker id="Arrow2Mend" orient="auto" refX="0" refY="0" style="overflow:visible"><path id="path3248" d="M 8.7185878,4.0337352 -2.2072895,0.01601326 8.7185884,-4.0017078 c -1.7454984,2.3720609 -1.7354408,5.6174519 -6e-7,8.035443 z" transform="scale(-0.6,-0.6)" style="font-size:12px;fill-rule:evenodd;stroke-width:.625;stroke-linejoin:round"/></marker><marker id="Arrow1Mstart-6" orient="auto" refX="0" refY="0" style="overflow:visible"><path id="path3227-3" d="M 0,0 5,-5 -12.5,0 5,5 0,0 z" transform="matrix(0.4,0,0,0.4,4,0)" style="fill-rule:evenodd;stroke:#000;stroke-width:1pt;marker-start:none"/></marker><marker id="Arrow2Mend-2" orient="auto" refX="0" refY="0" style="overflow:visible"><path id="path3248-0" d="M 8.7185878,4.0337352 -2.2072895,0.01601326 8.7185884,-4.0017078 c -1.7454984,2.3720609 -1.7354408,5.6174519 -6e-7,8.035443 z" transform="scale(-0.6,-0.6)" style="font-size:12px;fill-rule:evenodd;stroke-width:.625;stroke-linejoin:round"/></marker><marker id="Arrow1Mstart-1" orient="auto" refX="0" refY="0" style="overflow:visible"><path id="path3227-5" d="M 0,0 5,-5 -12.5,0 5,5 0,0 z" transform="matrix(0.4,0,0,0.4,4,0)" style="fill-rule:evenodd;stroke:#000;stroke-width:1pt;marker-start:none"/></marker><marker id="Arrow2Mend-5" orient="auto" refX="0" refY="0" style="overflow:visible"><path id="path3248-4" d="M 8.7185878,4.0337352 -2.2072895,0.01601326 8.7185884,-4.0017078 c -1.7454984,2.3720609 -1.7354408,5.6174519 -6e-7,8.035443 z" transform="scale(-0.6,-0.6)" style="font-size:12px;fill-rule:evenodd;stroke-width:.625;stroke-linejoin:round"/></marker><marker id="Arrow1Mstart-4" orient="auto" refX="0" refY="0" style="overflow:visible"><path id="path3227-52" d="M 0,0 5,-5 -12.5,0 5,5 0,0 z" transform="matrix(0.4,0,0,0.4,4,0)" style="fill-rule:evenodd;stroke:#000;stroke-width:1pt;marker-start:none"/></marker><marker id="Arrow2Mend-54" orient="auto" refX="0" refY="0" style="overflow:visible"><path id="path3248-7" d="M 8.7185878,4.0337352 -2.2072895,0.01601326 8.7185884,-4.0017078 c -1.7454984,2.3720609 -1.7354408,5.6174519 -6e-7,8.035443 z" transform="scale(-0.6,-0.6)" style="font-size:12px;fill-rule:evenodd;stroke-width:.625;stroke-linejoin:round"/></marker><marker id="marker3947" orient="auto" refX="0" refY="0" style="overflow:visible"><path id="path3949" d="M 0,0 5,-5 -12.5,0 5,5 0,0 z" transform="matrix(0.4,0,0,0.4,4,0)" style="fill-rule:evenodd;stroke:#000;stroke-width:1pt;marker-start:none"/></marker><marker id="marker3951" orient="auto" refX="0" refY="0" style="overflow:visible"><path id="path3953" d="M 8.7185878,4.0337352 -2.2072895,0.01601326 8.7185884,-4.0017078 c -1.7454984,2.3720609 -1.7354408,5.6174519 -6e-7,8.035443 z" transform="scale(-0.6,-0.6)" style="font-size:12px;fill-rule:evenodd;stroke-width:.625;stroke-linejoin:round"/></marker><marker id="marker3955" orient="auto" refX="0" refY="0" style="overflow:visible"><path id="path3957" d="M 0,0 5,-5 -12.5,0 5,5 0,0 z" transform="matrix(0.4,0,0,0.4,4,0)" style="fill-rule:evenodd;stroke:#000;stroke-width:1pt;marker-start:none"/></marker><marker id="marker3959" orient="auto" refX="0" refY="0" style="overflow:visible"><path id="path3961" d="M 8.7185878,4.0337352 -2.2072895,0.01601326 8.7185884,-4.0017078 c -1.7454984,2.3720609 -1.7354408,5.6174519 -6e-7,8.035443 z" transform="scale(-0.6,-0.6)" style="font-size:12px;fill-rule:evenodd;stroke-width:.625;stroke-linejoin:round"/></marker><marker id="Arrow1Mstart-0" orient="auto" refX="0" refY="0" style="overflow:visible"><path id="path3227-6" d="M 0,0 5,-5 -12.5,0 5,5 0,0 z" transform="matrix(0.4,0,0,0.4,4,0)" style="fill-rule:evenodd;stroke:#000;stroke-width:1pt;marker-start:none"/></marker><marker id="Arrow2Mend-8" orient="auto" refX="0" refY="0" style="overflow:visible"><path id="path3248-9" d="M 8.7185878,4.0337352 -2.2072895,0.01601326 8.7185884,-4.0017078 c -1.7454984,2.3720609 -1.7354408,5.6174519 -6e-7,8.035443 z" transform="scale(-0.6,-0.6)" style="font-size:12px;fill-rule:evenodd;stroke-width:.625;stroke-linejoin:round"/></marker><marker id="marker4068" orient="auto" refX="0" refY="0" style="overflow:visible"><path id="path4070" d="M 0,0 5,-5 -12.5,0 5,5 0,0 z" transform="matrix(0.4,0,0,0.4,4,0)" style="fill-rule:evenodd;stroke:#000;stroke-width:1pt;marker-start:none"/></marker><marker id="marker4072" orient="auto" refX="0" refY="0" style="overflow:visible"><path id="path4074" d="M 8.7185878,4.0337352 -2.2072895,0.01601326 8.7185884,-4.0017078 c -1.7454984,2.3720609 -1.7354408,5.6174519 -6e-7,8.035443 z" transform="scale(-0.6,-0.6)" style="font-size:12px;fill-rule:evenodd;stroke-width:.625;stroke-linejoin:round"/></marker><marker id="DotL-4" orient="auto" refX="0" refY="0" style="overflow:visible"><path id="path4407-8" d="m -2.5,-1 c 0,2.76 -2.24,5 -5,5 -2.76,0 -5,-2.24 -5,-5 0,-2.76 2.24,-5 5,-5 2.76,0 5,2.24 5,5 z" transform="matrix(0.8,0,0,0.8,5.92,0.8)" style="fill-rule:evenodd;stroke:#000;stroke-width:1pt;marker-start:none;marker-end:none"/></marker><marker id="Arrow1Mstart-7" orient="auto" refX="0" refY="0" style="overflow:visible"><path id="path3227-1" d="M 0,0 5,-5 -12.5,0 5,5 0,0 z" transform="matrix(0.4,0,0,0.4,4,0)" style="fill-rule:evenodd;stroke:#000;stroke-width:1pt;marker-start:none"/></marker><marker id="Arrow2Mend-7" orient="auto" refX="0" refY="0" style="overflow:visible"><path id="path3248-2" d="M 8.7185878,4.0337352 -2.2072895,0.01601326 8.7185884,-4.0017078 c -1.7454984,2.3720609 -1.7354408,5.6174519 -6e-7,8.035443 z" transform="scale(-0.6,-0.6)" style="font-size:12px;fill-rule:evenodd;stroke-width:.625;stroke-linejoin:round"/></marker><marker id="marker4834" orient="auto" refX="0" refY="0" style="overflow:visible"><path id="path4836" d="M 0,0 5,-5 -12.5,0 5,5 0,0 z" transform="matrix(0.4,0,0,0.4,4,0)" style="fill-rule:evenodd;stroke:#000;stroke-width:1pt;marker-start:none"/></marker><marker id="marker4838" orient="auto" refX="0" refY="0" style="overflow:visible"><path id="path4840" d="M 8.7185878,4.0337352 -2.2072895,0.01601326 8.7185884,-4.0017078 c -1.7454984,2.3720609 -1.7354408,5.6174519 -6e-7,8.035443 z" transform="scale(-0.6,-0.6)" style="font-size:12px;fill-rule:evenodd;stroke-width:.625;stroke-linejoin:round"/></marker><marker id="marker4842" orient="auto" refX="0" refY="0" style="overflow:visible"><path id="path4844" d="M 0,0 5,-5 -12.5,0 5,5 0,0 z" transform="matrix(0.4,0,0,0.4,4,0)" style="fill-rule:evenodd;stroke:#000;stroke-width:1pt;marker-start:none"/></marker><marker id="marker4846" orient="auto" refX="0" refY="0" style="overflow:visible"><path id="path4848" d="M 8.7185878,4.0337352 -2.2072895,0.01601326 8.7185884,-4.0017078 c -1.7454984,2.3720609 -1.7354408,5.6174519 -6e-7,8.035443 z" transform="scale(-0.6,-0.6)" style="font-size:12px;fill-rule:evenodd;stroke-width:.625;stroke-linejoin:round"/></marker><marker id="marker4850" orient="auto" refX="0" refY="0" style="overflow:visible"><path id="path4852" d="M 0,0 5,-5 -12.5,0 5,5 0,0 z" transform="matrix(0.4,0,0,0.4,4,0)" style="fill-rule:evenodd;stroke:#000;stroke-width:1pt;marker-start:none"/></marker><marker id="marker4854" orient="auto" refX="0" refY="0" style="overflow:visible"><path id="path4856" d="M 8.7185878,4.0337352 -2.2072895,0.01601326 8.7185884,-4.0017078 c -1.7454984,2.3720609 -1.7354408,5.6174519 -6e-7,8.035443 z" transform="scale(-0.6,-0.6)" style="font-size:12px;fill-rule:evenodd;stroke-width:.625;stroke-linejoin:round"/></marker><marker id="Arrow1Mstart-63" orient="auto" refX="0" refY="0" style="overflow:visible"><path id="path3227-9" d="M 0,0 5,-5 -12.5,0 5,5 0,0 z" transform="matrix(0.4,0,0,0.4,4,0)" style="fill-rule:evenodd;stroke:#000;stroke-width:1pt;marker-start:none"/></marker><marker id="Arrow2Mend-4" orient="auto" refX="0" refY="0" style="overflow:visible"><path id="path3248-8" d="M 8.7185878,4.0337352 -2.2072895,0.01601326 8.7185884,-4.0017078 c -1.7454984,2.3720609 -1.7354408,5.6174519 -6e-7,8.035443 z" transform="scale(-0.6,-0.6)" style="font-size:12px;fill-rule:evenodd;stroke-width:.625;stroke-linejoin:round"/></marker><marker id="DotL-9" orient="auto" refX="0" refY="0" style="overflow:visible"><path id="path4407-0" d="m -2.5,-1 c 0,2.76 -2.24,5 -5,5 -2.76,0 -5,-2.24 -5,-5 0,-2.76 2.24,-5 5,-5 2.76,0 5,2.24 5,5 z" transform="matrix(0.8,0,0,0.8,5.92,0.8)" style="fill-rule:evenodd;stroke:#000;stroke-width:1pt;marker-start:none;marker-end:none"/></marker><marker id="DotL-0" orient="auto" refX="0" refY="0" style="overflow:visible"><path id="path4407-9" d="m -2.5,-1 c 0,2.76 -2.24,5 -5,5 -2.76,0 -5,-2.24 -5,-5 0,-2.76 2.24,-5 5,-5 2.76,0 5,2.24 5,5 z" transform="matrix(0.8,0,0,0.8,5.92,0.8)" style="fill-rule:evenodd;stroke:#000;stroke-width:1pt;marker-start:none;marker-end:none"/></marker></defs><metadata id="metadata3037"/><g id="layer1"><text style="font-size:12px;font-style:normal;font-variant:normal;font-weight:400;font-stretch:normal;line-height:125%;letter-spacing:0;word-spacing:0;fill:#000;fill-opacity:1;stroke:none;font-family:Bitstream Vera Sans;-inkscape-font-specification:Bitstream Vera Sans" id="text3040" x="27" y="34.362" xml:space="preserve"><tspan id="tspan3042" x="27" y="34.362">Inline element geometry in CSSBox</tspan></text><text style="font-size:12px;font-style:normal;font-variant:normal;font-weight:700;font-stretch:normal;line-height:125%;letter-spacing:0;word-spacing:0;fill:#000;fill-opacity:1;stroke:none;font-family:Bitstream Vera Sans;-inkscape-font-specification:Bitstream Vera Sans Bold;text-anchor:start;text-align:start;writing-mode:lr" id="text3063" x="27" y="82.362" xml:space="preserve"><tspan id="tspan3065" x="27" y="82.362">TextBox</tspan></text><text style="font-size:32px;font-style:normal;font-variant:normal;font-weight:400;font-stretch:normal;text-align:start;line-height:125%;letter-spacing:0;word-spacing:0;writing-mode:lr-tb;text-anchor:start;fill:#000;fill-opacity:1;stroke:none;font-family:Times New Roman;-inkscape-font-specification:'Times New Roman,'" id="text3067" x="98.5" y="183.362" xml:space="preserve"><tspan id="tspan3071" x="98.5" y="183.362">This is just a good Example</tspan></text><path style="fill:none;stroke:#00f;stroke-width:.99235177;stroke-linecap:butt;stroke-linejoin:miter;stroke-miterlimit:4;stroke-opacity:1;stroke-dasharray:3.96940673,.99235168;stroke-dashoffset:0" id="path3073" d="m 99.469004,184.39251 355.006646,0"/><text style="font-size:12px;font-style:normal;font-variant:normal;font-weight:400;font-stretch:normal;line-height:125%;letter-spacing:0;word-spacing:0;fill:#000;fill-opacity:1;stroke:none;font-family:Bitstream Vera Sans;-inkscape-font-specification:Bitstream Vera Sans" id="text2995" x="29" y="99.362" xml:space="preserve"><tspan id="tspan2997" x="29" y="99.362">The height of the text box is equal to the linebox.</tspan><tspan id="tspan3769" x="29" y="114.362">HalfLead = 0</tspan><tspan id="tspan3771" x="29" y="129.362">Declared line height is not considered</tspan></text><rect style="fill:none;stroke:#ffd900;stroke-width:.89072168;stroke-miterlimit:4;stroke-opacity:1;stroke-dasharray:3.56288673,.89072168;stroke-dashoffset:0" id="rect3767" width="357.446" height="33.467" x="98.054" y="157.862"/><path style="fill:none;stroke:#00f;stroke-width:.99999994;stroke-linecap:butt;stroke-linejoin:miter;stroke-miterlimit:4;stroke-opacity:1;stroke-dasharray:none;marker-start:url(#Arrow1Mstart);marker-end:url(#Arrow2Mend)" id="path5563" d="m 465.49039,157.36218 c 0,33.87995 0,33.87995 0,33.87995"/><text style="font-size:9px;font-style:normal;font-variant:normal;font-weight:400;font-stretch:normal;line-height:125%;letter-spacing:0;word-spacing:0;fill:#000;fill-opacity:1;stroke:none;font-family:Bitstream Vera Sans;-inkscape-font-specification:Bitstream Vera Sans;text-anchor:start;text-align:start;writing-mode:lr" id="text3788" x="476" y="177.862" xml:space="preserve"><tspan id="tspan3790" x="476" y="177.862">height = content.height = totalLineHeight</tspan></text><path style="fill:none;stroke:#00f;stroke-width:1.00000012;stroke-linecap:butt;stroke-linejoin:miter;stroke-miterlimit:4;stroke-opacity:1;stroke-dasharray:none;marker-start:url(#Arrow1Mstart);marker-end:url(#Arrow2Mend)" id="path5563-6" d="m 90.990392,157.36223 c 0,26.99995 0,26.99995 0,26.99995"/><path style="fill:none;stroke:#00f;stroke-width:1.00000012;stroke-linecap:butt;stroke-linejoin:miter;stroke-miterlimit:4;stroke-opacity:1;stroke-dasharray:none;marker-start:url(#Arrow1Mstart);marker-end:url(#Arrow2Mend)" id="path5563-6-7" d="m 91.115392,184.36218 c 0,7 0,7 0,7"/><text style="font-size:9px;font-style:normal;font-variant:normal;font-weight:400;font-stretch:normal;text-align:start;line-height:100%;letter-spacing:0;word-spacing:0;writing-mode:lr-tb;text-anchor:start;fill:#000;fill-opacity:1;stroke:none;font-family:Bitstream Vera Sans;-inkscape-font-specification:Bitstream Vera Sans" id="text3788-6" x="10.998" y="168.345" xml:space="preserve"><tspan id="tspan3906" x="10.998" y="168.345">above</tspan><tspan id="tspan3908" x="10.998" y="177.345">= baselineOffset</tspan></text><text style="font-size:9px;font-style:normal;font-variant:normal;font-weight:400;font-stretch:normal;text-align:start;line-height:125%;letter-spacing:0;word-spacing:0;writing-mode:lr-tb;text-anchor:start;fill:#000;fill-opacity:1;stroke:none;font-family:Bitstream Vera Sans;-inkscape-font-specification:Bitstream Vera Sans" id="text3788-6-6" x="58.504" y="190.217" xml:space="preserve"><tspan id="tspan3902" x="58.504" y="190.217">below</tspan></text><text style="font-size:12px;font-style:normal;font-variant:normal;font-weight:700;font-stretch:normal;text-align:start;line-height:125%;letter-spacing:0;word-spacing:0;writing-mode:lr-tb;text-anchor:start;fill:#000;fill-opacity:1;stroke:none;font-family:Bitstream Vera Sans;-inkscape-font-specification:Bitstream Vera Sans Bold" id="text3063-3" x="30.398" y="251.151" xml:space="preserve"><tspan id="tspan3931" x="30.398" y="251.151">Simple InlineBox</tspan></text><text style="font-size:32px;font-style:normal;font-variant:normal;font-weight:400;font-stretch:normal;text-align:start;line-height:125%;letter-spacing:0;word-spacing:0;writing-mode:lr-tb;text-anchor:start;fill:#000;fill-opacity:1;stroke:none;font-family:Times New Roman;-inkscape-font-specification:'Times New Roman,'" id="text3067-4" x="200.049" y="312.235" xml:space="preserve"><tspan id="tspan3071-4" x="200.049" y="312.235">This is just a good Example</tspan></text><path style="fill:none;stroke:#00f;stroke-width:.99235177;stroke-linecap:butt;stroke-linejoin:miter;stroke-miterlimit:4;stroke-opacity:1;stroke-dasharray:3.96940673,.99235168;stroke-dashoffset:0" id="path3073-3" d="m 201.01771,313.26579 355.00665,0"/><rect style="fill:none;stroke:#f0f;stroke-width:.89072168;stroke-miterlimit:4;stroke-opacity:1;stroke-dasharray:3.56288673,.89072168;stroke-dashoffset:0" id="rect3767-0" width="357.446" height="33.467" x="199.602" y="286.735"/><path style="fill:none;stroke:#00f;stroke-width:.99999994;stroke-linecap:butt;stroke-linejoin:miter;stroke-miterlimit:4;stroke-opacity:1;stroke-dasharray:none;marker-start:url(#Arrow1Mstart);marker-end:url(#Arrow2Mend)" id="path5563-7" d="m 567.0391,283.54362 c 0,41.46372 0,41.46372 0,41.46372"/><text style="font-size:9px;font-style:normal;font-variant:normal;font-weight:400;font-stretch:normal;text-align:start;line-height:125%;letter-spacing:0;word-spacing:0;writing-mode:lr-tb;text-anchor:start;fill:#000;fill-opacity:1;stroke:none;font-family:Bitstream Vera Sans;-inkscape-font-specification:Bitstream Vera Sans" id="text3788-8" x="577.549" y="306.735" xml:space="preserve"><tspan id="tspan4052" x="577.549" y="306.735">content.height = fontSize * 1.2</tspan></text><path style="fill:none;stroke:#00f;stroke-width:1.00000012;stroke-linecap:butt;stroke-linejoin:miter;stroke-miterlimit:4;stroke-opacity:1;stroke-dasharray:none;marker-start:url(#Arrow1Mstart);marker-end:url(#Arrow2Mend)" id="path5563-6-8" d="m 192.5391,286.23551 c 0,26.99995 0,26.99995 0,26.99995"/><path style="fill:none;stroke:#00f;stroke-width:1.00000012;stroke-linecap:butt;stroke-linejoin:miter;stroke-miterlimit:4;stroke-opacity:1;stroke-dasharray:none;marker-start:url(#Arrow1Mstart);marker-end:url(#Arrow2Mend)" id="path5563-6-7-8" d="m 192.6641,313.23546 c 0,7 0,7 0,7"/><text style="font-size:8px;font-style:normal;font-variant:normal;font-weight:400;font-stretch:normal;text-align:start;line-height:112.99999952%;letter-spacing:0;word-spacing:0;writing-mode:lr-tb;text-anchor:start;fill:#000;fill-opacity:1;stroke:none;font-family:Bitstream Vera Sans;-inkscape-font-specification:Bitstream Vera Sans" id="text3788-6-4" x="118.047" y="296.218" xml:space="preserve"><tspan id="tspan3906-3" x="118.047" y="296.218">above</tspan><tspan id="tspan3908-1" x="118.047" y="305.258">= baselineOffset</tspan></text><text style="font-size:8px;font-style:normal;font-variant:normal;font-weight:400;font-stretch:normal;text-align:start;line-height:112.99999952%;letter-spacing:0;word-spacing:0;writing-mode:lr-tb;text-anchor:start;fill:#000;fill-opacity:1;stroke:none;font-family:Bitstream Vera Sans;-inkscape-font-specification:Bitstream Vera Sans" id="text3788-6-6-4" x="165.552" y="318.091" xml:space="preserve"><tspan id="tspan3902-9" x="165.552" y="318.091">below</tspan></text><rect style="fill:none;stroke:#ffd900;stroke-width:.89072174;stroke-miterlimit:4;stroke-opacity:1;stroke-dasharray:3.56288679,.8907217;stroke-dashoffset:0" id="rect3767-0-2" width="357.446" height="41.467" x="199.777" y="282.629"/><path style="fill:none;stroke:#00f;stroke-width:1.00000012;stroke-linecap:butt;stroke-linejoin:miter;stroke-miterlimit:4;stroke-opacity:1;stroke-dasharray:none;marker-start:url(#Arrow1Mstart);marker-end:url(#Arrow2Mend)" id="path5563-6-8-2" d="m 103.83375,285.97146 c 0,32.83696 0,32.83696 0,32.83696"/><text style="font-size:8px;font-style:normal;font-variant:normal;font-weight:400;font-stretch:normal;text-align:start;line-height:100%;letter-spacing:0;word-spacing:0;writing-mode:lr-tb;text-anchor:start;fill:#000;fill-opacity:1;stroke:none;font-family:Bitstream Vera Sans;-inkscape-font-specification:Bitstream Vera Sans" id="text3788-6-4-6" x="25.72" y="301.051" xml:space="preserve"><tspan id="tspan4120" x="25.72" y="301.051">totalLineHeight</tspan><tspan id="tspan4122" x="25.72" y="309.051">= above + below</tspan></text><text style="font-size:8px;font-style:normal;font-variant:normal;font-weight:400;font-stretch:normal;text-align:start;line-height:125%;letter-spacing:0;word-spacing:0;writing-mode:lr;text-anchor:start;fill:#000;fill-opacity:1;stroke:none;font-family:Bitstream Vera Sans;-inkscape-font-specification:Bitstream Vera Sans" id="text4124" x="378.414" y="266.023" xml:space="preserve"><tspan id="tspan5173">halfLead = (content.height - fontHeight) / 2</tspan><tspan id="tspan5175"> = - lineBoxOffset</tspan></text><path style="fill:none;stroke:#000;stroke-width:.49999997;stroke-linecap:butt;stroke-linejoin:miter;stroke-miterlimit:4;stroke-opacity:1;stroke-dasharray:none;marker-start:none;marker-end:url(#DotL)" id="path4128" d="m 377.30329,267.9731 -15.49664,15.85968"/><text style="font-size:12px;font-style:normal;font-variant:normal;font-weight:700;font-stretch:normal;text-align:start;line-height:125%;letter-spacing:0;word-spacing:0;writing-mode:lr;text-anchor:start;fill:#000;fill-opacity:1;stroke:none;font-family:Bitstream Vera Sans;-inkscape-font-specification:Bitstream Vera Sans Bold" id="text3063-3-7" x="30.973" y="419.331" xml:space="preserve"><tspan id="tspan4971">Compound InlineBox</tspan></text><text style="font-size:32px;font-style:normal;font-variant:normal;font-weight:400;font-stretch:normal;text-align:start;line-height:125%;letter-spacing:0;word-spacing:0;writing-mode:lr;text-anchor:start;fill:#000;fill-opacity:1;stroke:none;font-family:Times New Roman;-inkscape-font-specification:'Times New Roman,'" id="text3067-4-2" x="200.623" y="480.415" xml:space="preserve"><tspan id="tspan4973">This is just an</tspan></text><path style="fill:none;stroke:#00f;stroke-width:.99235177;stroke-linecap:butt;stroke-linejoin:miter;stroke-miterlimit:4;stroke-opacity:1;stroke-dasharray:3.96940667,.99235167;stroke-dashoffset:0" id="path3073-3-1" d="m 201.5918,481.44509 378.66171,0"/><rect style="fill:none;stroke:#f0f;stroke-width:.89072168;stroke-miterlimit:4;stroke-opacity:1;stroke-dasharray:3.56288665,.89072165;stroke-dashoffset:0" id="rect3767-0-0" width="381.488" height="53.973" x="200.176" y="440.065"/><path style="fill:none;stroke:#00f;stroke-width:1.00000012;stroke-linecap:butt;stroke-linejoin:miter;stroke-miterlimit:4;stroke-opacity:1;stroke-dasharray:none;marker-start:url(#Arrow1Mstart);marker-end:url(#Arrow2Mend)" id="path5563-6-8-9" d="m 193.1132,440.98812 c 0,40.42662 0,40.42662 0,40.42662"/><path style="fill:none;stroke:#00f;stroke-width:1.00000012;stroke-linecap:butt;stroke-linejoin:miter;stroke-miterlimit:4;stroke-opacity:1;stroke-dasharray:none;marker-start:url(#Arrow1Mstart);marker-end:url(#Arrow2Mend)" id="path5563-6-7-8-4" d="m 193.2382,481.41474 c 0,13.39123 0,13.39123 0,13.39123"/><text style="font-size:8px;font-style:normal;font-variant:normal;font-weight:400;font-stretch:normal;text-align:start;line-height:112.99999952%;letter-spacing:0;word-spacing:0;writing-mode:lr-tb;text-anchor:start;fill:#000;fill-opacity:1;stroke:none;font-family:Bitstream Vera Sans;-inkscape-font-specification:Bitstream Vera Sans" id="text3788-6-4-9" x="118.621" y="464.398" xml:space="preserve"><tspan id="tspan3906-3-0" x="118.621" y="464.398">above</tspan><tspan id="tspan3908-1-9" x="118.621" y="473.438">= baselineOffset</tspan></text><text style="font-size:8px;font-style:normal;font-variant:normal;font-weight:400;font-stretch:normal;text-align:start;line-height:112.99999952%;letter-spacing:0;word-spacing:0;writing-mode:lr-tb;text-anchor:start;fill:#000;fill-opacity:1;stroke:none;font-family:Bitstream Vera Sans;-inkscape-font-specification:Bitstream Vera Sans" id="text3788-6-6-4-1" x="166.126" y="486.27" xml:space="preserve"><tspan id="tspan3902-9-7" x="166.126" y="486.27">below</tspan></text><rect style="fill:none;stroke:#ffd900;stroke-width:.89072174;stroke-miterlimit:4;stroke-opacity:1;stroke-dasharray:3.56288675,.89072169;stroke-dashoffset:0" id="rect3767-0-2-7" width="381.841" height="41.467" x="200.351" y="450.808"/><path style="fill:none;stroke:#00f;stroke-width:1.00000012;stroke-linecap:butt;stroke-linejoin:miter;stroke-miterlimit:4;stroke-opacity:1;stroke-dasharray:none;marker-start:url(#Arrow1Mstart);marker-end:url(#Arrow2Mend)" id="path5563-6-8-2-1" d="m 104.40785,440.99668 c 0,53.97142 0,53.97142 0,53.97142"/><text style="font-size:8px;font-style:normal;font-variant:normal;font-weight:400;font-stretch:normal;text-align:start;line-height:100%;letter-spacing:0;word-spacing:0;writing-mode:lr-tb;text-anchor:start;fill:#000;fill-opacity:1;stroke:none;font-family:Bitstream Vera Sans;-inkscape-font-specification:Bitstream Vera Sans" id="text3788-6-4-6-1" x="26.294" y="469.23" xml:space="preserve"><tspan id="tspan4120-5" x="26.294" y="469.23">totalLineHeight</tspan><tspan id="tspan4122-9" x="26.294" y="477.23">= above + below</tspan></text><text style="font-size:8px;font-style:normal;font-variant:normal;font-weight:400;font-stretch:normal;text-align:start;line-height:125%;letter-spacing:0;word-spacing:0;writing-mode:lr-tb;text-anchor:start;fill:#000;fill-opacity:1;stroke:none;font-family:Bitstream Vera Sans;-inkscape-font-specification:Bitstream Vera Sans" id="text4124-7" x="217.768" y="431.374" xml:space="preserve"><tspan id="tspan5124" x="217.768" y="431.374">halfLead</tspan></text><path style="fill:none;stroke:#000;stroke-width:.5;stroke-linecap:butt;stroke-linejoin:miter;stroke-miterlimit:4;stroke-opacity:1;stroke-dasharray:none;marker-start:none;marker-end:url(#DotL)" id="path4128-6" d="m 234.68826,433.32398 -18.79418,19.21937"/><text style="font-size:56px;font-style:normal;font-variant:normal;font-weight:400;font-stretch:normal;text-align:start;line-height:125%;letter-spacing:0;word-spacing:0;writing-mode:lr;text-anchor:start;fill:#000;fill-opacity:1;stroke:none;font-family:Times New Roman;-inkscape-font-specification:'Times New Roman,'" id="text3067-4-2-7" x="382.652" y="480.552" xml:space="preserve"><tspan id="tspan5001" x="382.652" y="480.552">Example</tspan></text><rect style="fill:none;stroke:#f0f;stroke-width:.89072168;stroke-miterlimit:4;stroke-opacity:1;stroke-dasharray:3.56288673,.89072169;stroke-dashoffset:0" id="rect3767-0-0-5" width="200.115" height="53.973" x="381.659" y="440.245"/><rect style="fill:none;stroke:#ffd900;stroke-width:.89072174;stroke-miterlimit:4;stroke-opacity:1;stroke-dasharray:3.56288673,.89072169;stroke-dashoffset:0" id="rect3767-0-2-7-3" width="200.115" height="62.327" x="381.482" y="435.891"/><text style="font-size:8px;font-style:normal;font-variant:normal;font-weight:400;font-stretch:normal;text-align:start;line-height:125%;letter-spacing:0;word-spacing:0;writing-mode:lr;text-anchor:start;fill:#000;fill-opacity:1;stroke:none;font-family:Bitstream Vera Sans;-inkscape-font-specification:Bitstream Vera Sans" id="text4124-7-8" x="415.336" y="422.514" xml:space="preserve"><tspan id="tspan5195">subbox.halfLead = (content.height - fontHeight) / 2</tspan></text><path style="fill:none;stroke:#000;stroke-width:.5;stroke-linecap:butt;stroke-linejoin:miter;stroke-miterlimit:4;stroke-opacity:1;stroke-dasharray:none;marker-start:none;marker-end:url(#DotL)" id="path4128-6-5" d="m 476.80398,425.52488 -11,12.5"/><path style="fill:none;stroke:#000;stroke-width:.5;stroke-linecap:butt;stroke-linejoin:miter;stroke-miterlimit:4;stroke-opacity:1;stroke-dasharray:none;marker-start:none;marker-end:url(#DotL)" id="path4128-6-6" d="m 296.7612,425.87695 -18.79418,19.21937"/><text style="font-size:8px;font-style:normal;font-variant:normal;font-weight:400;font-stretch:normal;text-align:start;line-height:125%;letter-spacing:0;word-spacing:0;writing-mode:lr-tb;text-anchor:start;fill:#000;fill-opacity:1;stroke:none;font-family:Bitstream Vera Sans;-inkscape-font-specification:Bitstream Vera Sans" id="text4124-7-3" x="280.575" y="422.838" xml:space="preserve"><tspan id="tspan5171" x="280.575" y="422.838">lineBoxOffset</tspan></text><rect style="fill:none;stroke:#f0f;stroke-width:.40000001;stroke-miterlimit:4;stroke-opacity:1;stroke-dasharray:1.6,.40000001;stroke-dashoffset:0" id="rect3767-0-5" width="179.963" height="33.467" x="200.286" y="455.094"/></g></svg>